<svg width="33" height="33" viewBox="0 0 33 33" fill="none" xmlns="http://www.w3.org/2000/svg">
<circle cx="16.5" cy="16.5" r="16.5" fill="#C4C4C4"/>
<path d="M12.9375 16.5C12.9375 16.8149 12.8124 17.117 12.5897 17.3397C12.367 17.5624 12.0649 17.6875 11.75 17.6875C11.4351 17.6875 11.133 17.5624 10.9103 17.3397C10.6876 17.117 10.5625 16.8149 10.5625 16.5C10.5625 16.1851 10.6876 15.883 10.9103 15.6603C11.133 15.4376 11.4351 15.3125 11.75 15.3125C12.0649 15.3125 12.367 15.4376 12.5897 15.6603C12.8124 15.883 12.9375 16.1851 12.9375 16.5ZM17.6875 16.5C17.6875 16.8149 17.5624 17.117 17.3397 17.3397C17.117 17.5624 16.8149 17.6875 16.5 17.6875C16.1851 17.6875 15.883 17.5624 15.6603 17.3397C15.4376 17.117 15.3125 16.8149 15.3125 16.5C15.3125 16.1851 15.4376 15.883 15.6603 15.6603C15.883 15.4376 16.1851 15.3125 16.5 15.3125C16.8149 15.3125 17.117 15.4376 17.3397 15.6603C17.5624 15.883 17.6875 16.1851 17.6875 16.5ZM21.25 17.6875C21.5649 17.6875 21.867 17.5624 22.0897 17.3397C22.3124 17.117 22.4375 16.8149 22.4375 16.5C22.4375 16.1851 22.3124 15.883 22.0897 15.6603C21.867 15.4376 21.5649 15.3125 21.25 15.3125C20.9351 15.3125 20.633 15.4376 20.4103 15.6603C20.1876 15.883 20.0625 16.1851 20.0625 16.5C20.0625 16.8149 20.1876 17.117 20.4103 17.3397C20.633 17.5624 20.9351 17.6875 21.25 17.6875Z" fill="white"/>
<path d="M9.57094 25.7661L9.59469 25.7613C11.7678 25.3302 13.0954 24.7614 13.7129 24.4491C14.6221 24.6916 15.5591 24.8138 16.5 24.8125C21.7464 24.8125 26 21.0909 26 16.5C26 11.9091 21.7464 8.1875 16.5 8.1875C11.2536 8.1875 7 11.9091 7 16.5C7 18.59 7.88231 20.5019 9.33938 21.9625C9.23744 22.9007 9.02867 23.8243 8.71712 24.7151L8.71356 24.7282C8.62503 24.9833 8.52839 25.2356 8.42381 25.4846C8.33 25.7055 8.51169 25.9525 8.748 25.9145C9.0231 25.8695 9.29745 25.82 9.57094 25.7661ZM10.5209 22.0753C10.5376 21.9015 10.5157 21.7261 10.4567 21.5617C10.3978 21.3973 10.3034 21.2479 10.1801 21.1241C8.92138 19.8606 8.1875 18.2432 8.1875 16.5C8.1875 12.7095 11.7547 9.375 16.5 9.375C21.2452 9.375 24.8125 12.7095 24.8125 16.5C24.8125 20.2917 21.2452 23.625 16.5 23.625C15.6629 23.6262 14.8293 23.5176 14.0205 23.302C13.7378 23.2263 13.4372 23.2576 13.1762 23.3899C12.7166 23.6226 11.7037 24.0667 10.0483 24.4503C10.2793 23.675 10.4375 22.8799 10.5209 22.0753Z" fill="white"/>
</svg>
