<svg width="33" height="33" viewBox="0 0 33 33" fill="none" xmlns="http://www.w3.org/2000/svg">
<circle cx="16.5" cy="16.5" r="16.5" fill="#ACACAC"/>
<rect x="13" y="7" width="8" height="14" rx="4" fill="white"/>
<path fill-rule="evenodd" clip-rule="evenodd" d="M11.803 17.7478C11.7445 17.3377 11.4143 17 11.0001 17C10.5859 17 10.2458 17.3371 10.2912 17.7488C10.6365 20.8781 13.121 23.3629 16.2501 23.7088V26.25H14.0001C13.5859 26.25 13.2501 26.5858 13.2501 27C13.2501 27.4142 13.5859 27.75 14.0001 27.75H20.0001C20.4143 27.75 20.7501 27.4142 20.7501 27C20.7501 26.5858 20.4143 26.25 20.0001 26.25H17.7501V23.7088C20.8792 23.3629 23.3637 20.8781 23.7091 17.7488C23.7545 17.3371 23.4143 17 23.0001 17C22.5859 17 22.2558 17.3377 22.1973 17.7478C21.8343 20.2931 19.6458 22.25 17.0001 22.25C14.3545 22.25 12.1659 20.2931 11.803 17.7478Z" fill="white"/>
</svg>
