<svg width="33" height="33" viewBox="0 0 33 33" fill="none" xmlns="http://www.w3.org/2000/svg">
<circle cx="16.5" cy="16.5" r="16.5" fill="#ED695E"/>
<g clip-path="url(#clip0)">
<path d="M20.625 16.5C20.625 16.9653 20.5475 17.4133 20.4056 17.8308L19.734 17.1592C19.7779 16.9422 19.8001 16.7214 19.8 16.5V15.675C19.8 15.5656 19.8435 15.4607 19.9208 15.3834C19.9982 15.306 20.1031 15.2625 20.2125 15.2625C20.3219 15.2625 20.4268 15.306 20.5042 15.3834C20.5815 15.4607 20.625 15.5656 20.625 15.675V16.5ZM16.5 19.8C17.1748 19.8 17.8018 19.5979 18.3249 19.2498L18.9173 19.8429C18.3283 20.27 17.6364 20.5328 16.9125 20.6044V22.275H19.3875C19.4969 22.275 19.6018 22.3185 19.6792 22.3959C19.7565 22.4732 19.8 22.5781 19.8 22.6875C19.8 22.7969 19.7565 22.9019 19.6792 22.9792C19.6018 23.0566 19.4969 23.1 19.3875 23.1H13.6125C13.5031 23.1 13.3982 23.0566 13.3208 22.9792C13.2435 22.9019 13.2 22.7969 13.2 22.6875C13.2 22.5781 13.2435 22.4732 13.3208 22.3959C13.3982 22.3185 13.5031 22.275 13.6125 22.275H16.0875V20.6044C15.07 20.5022 14.1268 20.0256 13.4408 19.2672C12.7548 18.5088 12.375 17.5226 12.375 16.5V15.675C12.375 15.5656 12.4185 15.4607 12.4958 15.3834C12.5732 15.306 12.6781 15.2625 12.7875 15.2625C12.8969 15.2625 13.0018 15.306 13.0792 15.3834C13.1565 15.4607 13.2 15.5656 13.2 15.675V16.5C13.2 17.3753 13.5477 18.2146 14.1665 18.8335C14.7854 19.4524 15.6248 19.8 16.5 19.8ZM18.975 12.375V16.4002L14.1553 11.5806C14.3442 11.0255 14.7239 10.5555 15.2269 10.2543C15.7298 9.95298 16.3234 9.83996 16.9019 9.93532C17.4803 10.0307 18.0062 10.3282 18.3858 10.775C18.7655 11.2218 18.9743 11.7888 18.975 12.375Z" fill="white"/>
<path d="M17.7258 18.6507L14.0249 14.9489V16.4999C14.0247 16.9333 14.1384 17.3591 14.3545 17.7348C14.5706 18.1104 14.8816 18.4228 15.2563 18.6405C15.631 18.8583 16.0563 18.9738 16.4897 18.9756C16.9231 18.9774 17.3493 18.8654 17.7258 18.6507ZM11.2578 11.017L21.1578 20.917L21.7419 20.3329L11.8419 10.4329L11.2578 11.017Z" fill="white"/>
</g>
<defs>
<clipPath id="clip0">
<rect width="13.2" height="13.2" fill="white" transform="translate(9.8999 9.8999)"/>
</clipPath>
</defs>
</svg>
