<svg width="33" height="33" viewBox="0 0 33 33" fill="none" xmlns="http://www.w3.org/2000/svg">
<circle cx="16.5" cy="16.5" r="16.5" fill="#ACACAC"/>
<g filter="url(#filter0_d)">
<path d="M16.0097 12.7597L16.0097 12.7597C16.107 12.6624 16.2224 12.5853 16.3494 12.5327C16.4764 12.4802 16.6125 12.4531 16.75 12.4531L16.0097 12.7597ZM16.0097 12.7597L13.3847 15.3847C13.1884 15.581 13.0781 15.8473 13.0781 16.125C13.0781 16.4027 13.1884 16.669 13.3847 16.8653C13.581 17.0616 13.8473 17.1719 14.125 17.1719C14.4027 17.1719 14.669 17.0616 14.8653 16.8653L15.7031 16.0275M16.0097 12.7597L15.7031 16.0275M15.7031 16.0275V20.3906C15.7031 20.6683 15.8134 20.9345 16.0097 21.1309C16.2061 21.3272 16.4724 21.4375 16.75 21.4375C17.0276 21.4375 17.2939 21.3272 17.4903 21.1309C17.6866 20.9345 17.7969 20.6683 17.7969 20.3906V16.0275L18.6347 16.8653C18.831 17.0616 19.0973 17.1719 19.375 17.1719C19.6527 17.1719 19.919 17.0616 20.1153 16.8653C20.3116 16.669 20.4219 16.4027 20.4219 16.125C20.4219 15.8473 20.3116 15.581 20.1153 15.3847L17.4903 12.7597C17.2941 12.5635 17.0273 12.4531 16.7501 12.4531L15.7031 16.0275ZM8.89815 10.8982C9.15308 10.6432 9.49885 10.5 9.85938 10.5H23.6406C24.0012 10.5 24.3469 10.6432 24.6018 10.8982C24.8568 11.1531 25 11.4988 25 11.8594V22.1406C25 22.5012 24.8568 22.8469 24.6018 23.1018C24.3469 23.3568 24.0012 23.5 23.6406 23.5H9.85938C9.49885 23.5 9.15308 23.3568 8.89815 23.1018C8.64322 22.8469 8.5 22.5012 8.5 22.1406V11.8594C8.5 11.4988 8.64322 11.1531 8.89815 10.8982Z" fill="white" stroke="white"/>
</g>
<defs>
<filter id="filter0_d" x="4" y="10" width="25.5" height="22" filterUnits="userSpaceOnUse" color-interpolation-filters="sRGB">
<feFlood flood-opacity="0" result="BackgroundImageFix"/>
<feColorMatrix in="SourceAlpha" type="matrix" values="0 0 0 0 0 0 0 0 0 0 0 0 0 0 0 0 0 0 127 0" result="hardAlpha"/>
<feOffset dy="4"/>
<feGaussianBlur stdDeviation="2"/>
<feComposite in2="hardAlpha" operator="out"/>
<feColorMatrix type="matrix" values="0 0 0 0 0 0 0 0 0 0 0 0 0 0 0 0 0 0 0.25 0"/>
<feBlend mode="normal" in2="BackgroundImageFix" result="effect1_dropShadow"/>
<feBlend mode="normal" in="SourceGraphic" in2="effect1_dropShadow" result="shape"/>
</filter>
</defs>
</svg>
